# xmcd CD database file
#
# Track frame offsets:
#	150
#	18375
#	40362
#	61312
#	87722
#	106437
#	121507
#	142175
#	159662
#	183400
#	204917
#	222360
#	236970
#	260837
#	282095
#	296087
#
# Disc length: 4246 seconds
#
# Revision: 0
# Processed by: cddbd v1.5PL3 Copyright (c) Steve Scherf et al.
# Submitted via: CDex 1.51
#
DISCID=fb109410
DTITLE=Uptown Lowdown Jazz Band - Saloon
DYEAR=1989
DGENRE=Jazz
TTITLE0=Sissor Grinder Joe
TTITLE1=Temptation Blues
TTITLE2=Give Me The Sultan's Harem
TTITLE3=Love Me With A Feeling
TTITLE4=The Crave
TTITLE5=Climax Rag
TTITLE6=Saloon
TTITLE7=Little John's Rag
TTITLE8=East Coast Trot
TTITLE9=There'll Come A Time
TTITLE10=Lassus Trombone
TTITLE11=Spanish Shawl
TTITLE12=You're Next
TTITLE13=Heebie Jeebies
TTITLE14=Weatherbird Rag
TTITLE15=Weary Blues
EXTD=YEAR: 1989
EXTT0=
EXTT1=
EXTT2=
EXTT3=
EXTT4=
EXTT5=
EXTT6=
EXTT7=
EXTT8=
EXTT9=
EXTT10=
EXTT11=
EXTT12=
EXTT13=
EXTT14=
EXTT15=
PLAYORDER=
